<svg xmlns="http://www.w3.org/2000/svg" width="25" height="41" viewBox="0 0 25 41" fill="none">
  <defs>
    <linearGradient id="pin" x1="4" y1="3" x2="21" y2="34" gradientUnits="userSpaceOnUse">
      <stop stop-color="#FB7185"/>
      <stop offset="1" stop-color="#DC2626"/>
    </linearGradient>
    <filter id="shadow" x="-35%" y="-20%" width="170%" height="165%">
      <feDropShadow dx="0" dy="2" stdDeviation="1.6" flood-color="#7F1D1D" flood-opacity=".35"/>
    </filter>
  </defs>
  <path d="M12.5 39C11.1 35.7 2.5 25.1 2.5 15.1C2.5 8.4 7 3 12.5 3S22.5 8.4 22.5 15.1C22.5 25.1 13.9 35.7 12.5 39Z" fill="url(#pin)" stroke="#991B1B" stroke-width="1.2" filter="url(#shadow)"/>
  <circle cx="12.5" cy="14.5" r="6.2" fill="white" fill-opacity=".96"/>
  <circle cx="9.3" cy="12.2" r="1.35" fill="#DC2626"/>
  <circle cx="15.7" cy="12.2" r="1.35" fill="#DC2626"/>
  <circle cx="12.5" cy="10.3" r="1.35" fill="#DC2626"/>
  <path d="M9.2 16.3C9.2 14.9 10.7 13.8 12.5 13.8S15.8 14.9 15.8 16.3c0 1.6-1.5 2.5-3.3 2.5s-3.3-.9-3.3-2.5Z" fill="#DC2626"/>
</svg>
